<svg xmlns="http://www.w3.org/2000/svg" id="Layer_2" viewBox="0 0 448.03 512.25"><defs><style>.cls-1{fill:#fff;}</style></defs><g id="Layer_1-2"><path class="cls-1" d="M413.83,447.35l-157.8,.9v31.99c0,17.71-14.2,32.01-31.9,32.01s-32.1-14.32-32.1-31.99v-31.99H33.13c-28.5,0-43.69-34.5-24.69-56.41l68.98-79.59h-15.17c-25.41,0-39.15-29.8-22.67-49.13l60.41-70.85h-10.75c-21.28,0-32.87-22.5-19.28-37.31L204.76,8.48c10.4-11.3,28.22-11.3,38.62,0l134.9,146.5c13.62,14.81,2,37.31-19.28,37.31h-10.77l60.35,70.86c16.46,19.34,2.72,49.12-22.68,49.12h-15.2l68.98,79.59c19.05,22.09,3.45,55.49-25.85,55.49Z"/></g></svg>