<?xml version="1.0" encoding="utf-8"?>
<!-- Generator: Adobe Illustrator 26.4.1, SVG Export Plug-In . SVG Version: 6.00 Build 0)  -->
<svg version="1.1" id="Capa_1" xmlns="http://www.w3.org/2000/svg" xmlns:xlink="http://www.w3.org/1999/xlink" x="0px" y="0px"
	 viewBox="0 0 63.6 63.6" style="enable-background:new 0 0 63.6 63.6;" xml:space="preserve">
<style type="text/css">
	.st0{fill:#FFFFFF;}
</style>
<g>
	<g>
		<path class="st0" d="M49.6,40.6c-1.2-1.5-3.1-1.7-4.6-0.5c-1.8,1.4-4.4,3.3-6.5,4.5c-0.7-2.4-1-5.5-1.6-8l0-14.5
			c0,0,7.9-1,10.2-1.4c2.4-0.2,2.8-2.4,2.3-3.9c-0.1-0.4-3.3-9.4-3.8-11.2c-0.5-1.7-2-2.7-3.9-2.2c-1.7,0.5-2.3,2.2-1.7,3.9
			c0.7,2.4,2.7,8.2,2.7,8.2l-6.9,0.9l-11.2-2.4c-2.8-3-4.7-6.4-5.3-11.3C19,1,17.9-0.2,15.8,0C14,0.2,13,1.9,13.2,3.7
			c1,7.3,4.3,13.6,9.4,17.7v14.4c-3.5,8.9-3.5,18,1.6,26.2c0.7,1.1,1.8,1.6,3,1.6c0.6,0,1.3-0.2,1.9-0.5c1.6-1,2.1-3.2,1.1-4.8
			c-2.8-4.5-4.1-10-2.7-16.3c0.2-1,1.2-1.7,2.2-1.7h0c1,0,1.8,0.7,2,1.7c0.6,2.7,0.9,5.4,1.4,7c0.9,3.2,4.2,3.8,6.2,2.7
			c4.2-2.2,6.8-3.8,9.8-6.1C50.6,44.4,50.8,42.1,49.6,40.6z"/>
		<circle class="st0" cx="31.2" cy="8.3" r="5.4"/>
	</g>
</g>
</svg>
